# xmcd CD database file
#
# Track frame offsets:
#	150
#	16327
#	84575
#	165455
#	192975
#	200410
#	204502
#	230055
#	272085
#
# Disc length: 3917 seconds
#
# Revision: 1
# Processed by: cddbd v1.5.2PL0 Copyright (c) Steve Scherf et al.
# Submitted via: CDex 1.70beta2
#
DISCID=760f4b09
DTITLE=ヤン富田 - Music For Astro Age (Reel 2)
DYEAR=1992
DGENRE=New Age
TTITLE0=We Travel The Spaceways #2
TTITLE1=Astro 2050 Systems
TTITLE2=Dub Invader
TTITLE3=Beyond The Blue Star Zone Part3
TTITLE4=The Voice Of Republic Of Trinidad and Tobago
TTITLE5=Mighty Wiper's Calypso
TTITLE6=Music For Astro Age
TTITLE7=C-Ya!
TTITLE8=Astro Freaks
EXTD=YEAR: 1992
EXTT0=
EXTT1=
EXTT2=
EXTT3=
EXTT4=
EXTT5=
EXTT6=
EXTT7=
EXTT8=
PLAYORDER=
